PathFileType	4	(X/Y/Z)	9_coords_data.trc
DataRate	CameraRate	NumFrames	NumMarkers	Units	OrigDataRate	OrigDataStartFrame	OrigNumFrames
30.0	30.0	4	21	m	30.0	1	52
Frame#	Time	THUMB_TIP	THUMB_IP	THUMB_MCP	THUMB_CMC	INDEX_TIP	INDEX_DIP	INDEX_PIP	INDEX_MCP	MIDDLE_TIP	MIDDLE_DIP	MIDDLE_PIP	MIDDLE_MCP	RING_TIP	RING_DIP	RING_PIP	RING_MCP	PINKY_TIP	PINKY_DIP	PINKY_PIP	PINKY_MCP	WRIST
X1	Y1	Z1	X2	Y2	Z2	X3	Y3	Z3	X4	Y4	Z4	X5	Y5	Z5	X6	Y6	Z6	X7	Y7	Z7	X8	Y8	Z8	X9	Y9	Z9	X10	Y10	Z10	X11	Y11	Z11	X12	Y12	Z12	X13	Y13	Z13	X14	Y14	Z14	X15	Y15	Z15	X16	Y16	Z16	X17	Y17	Z17	X18	Y18	Z18	X19	Y19	Z19	X20	Y20	Z20	X21	Y21	Z21
0	0.0	0.001651569962501525	-0.10327100372314453	0.9592969970703125	0.004751830101013183	-0.08072160339355469	0.9743259887695312	0.001805009961128234	-0.060569698333740235	0.9941820068359375	-0.0018837300539016719	-0.029600799560546873	1.0156400146484375	0.026141300201416015	-0.053913501739501955	0.8767509765625	0.020541099548339842	-0.048904800415039064	0.8982470092773438	0.010759200096130371	-0.04520380020141602	0.9174190063476563	-0.0027622699737548826	-0.03657229995727539	0.9565640258789062	0.024353399276733398	-0.006867499828338623	0.8603280029296875	0.021969200134277344	-0.009878219604492188	0.88381298828125	0.010741700172424316	-0.012938899993896484	0.9117860107421875	-0.0017892500162124628	-0.013576199531555175	0.9532680053710938	0.02628300094604492	0.021365299224853515	0.872989013671875	0.018518999099731447	0.01803339958190918	0.8975789794921875	0.005417319774627684	0.014153200149536133	0.9239559936523437	-0.008059789657592773	0.004924699783325195	0.9768560180664062	0.026552000045776368	0.06270909881591796	0.9200289916992187	0.015955400466918946	0.05400690078735351	0.9360789794921875	0.007545740127563477	0.04618310165405273	0.9504310302734374	0.0023374099731445315	0.028761800765991212	0.9746279907226563	-0.032311698913574216	-0.00737253999710083	1.0419300537109375
1	0.03333333333333333	0.007086790084838867	-0.09714219665527343	0.9579819946289062	0.009988699913024902	-0.0748385009765625	0.9725150146484375	0.004437150001525879	-0.05336949920654297	0.9967750244140625	0.0029653298854827883	-0.018158700942993163	1.0124199829101563	0.0300310001373291	-0.04577000045776367	0.8761859741210938	0.02247949981689453	-0.042834098815917966	0.8996599731445313	0.012907699584960937	-0.039070899963378904	0.9163049926757812	-0.001247419953346252	-0.03140229988098144	0.9561209716796875	0.03058370018005371	0.000535708010196685	0.8615050048828125	0.02448310089111328	-0.002830509901046753	0.8860180053710938	0.01135509967803955	-0.005002900123596192	0.9140059814453125	0.0007156959772109981	-0.009890190124511719	0.95735400390625	0.030873800277709963	0.027190900802612303	0.876176025390625	0.021523399353027342	0.02479319953918457	0.8981259765625	0.00761063003540039	0.01958359909057617	0.9240869750976562	-0.003974070072174072	0.013204999923706055	0.9622310180664062	0.03248989868164062	0.06663880157470703	0.9240750122070313	0.02174920082092285	0.059628799438476564	0.938375	0.010748900413513184	0.050202301025390625	0.9535239868164063	0.005480289936065674	0.034660400390625	0.9735859985351563	-0.031547700881958005	-0.004623630046844482	1.0435699462890624
2	0.06666666666666667	0.006354420185089111	-0.097714599609375	0.958718994140625	0.009127169609069825	-0.07479219818115235	0.9728800048828125	0.0045071702003479	-0.05500400161743164	0.9957009887695313	0.00038844400644302303	-0.024372600555419923	1.0161099853515625	0.028947799682617188	-0.04598400115966797	0.8766290283203125	0.021909299850463866	-0.042914600372314454	0.8981329956054688	0.01306089973449707	-0.039372100830078124	0.9190029907226562	0.0013148200511932371	-0.031641199111938474	0.9572230224609375	0.029642799377441405	-0.00027849400043487507	0.8615969848632813	0.02296190071105957	-0.003764839887619018	0.8859119873046875	0.010696399688720703	-0.006069809913635254	0.9140399780273437	-0.0017841299772262571	-0.008490949630737306	0.9553889770507813	0.030353099822998046	0.02639579963684082	0.8757930297851563	0.021470800399780273	0.024135499954223632	0.89864501953125	0.009026379585266113	0.020181299209594727	0.9245230102539063	0.00020037299394607503	0.01289680004119873	0.9628579711914063	0.032382099151611325	0.06539820098876953	0.9230960083007812	0.021476600646972658	0.05856840133666992	0.9389500122070312	0.011472700119018554	0.05061320114135742	0.9532139892578125	0.003643640041351318	0.03360260009765625	0.9759420166015625	-0.026956399917602538	-0.0039304900169372554	1.0393900146484376
3	0.1	0.006238810062408447	-0.09787159729003907	0.9587139892578125	0.008977649688720703	-0.07496299743652343	0.9728790283203125	0.00431866979598999	-0.055216499328613285	0.9956190185546875	0.000250461012125015	-0.02458169937133789	1.016030029296875	0.028703399658203125	-0.04621659851074219	0.8766110229492188	0.0216471004486084	-0.043120899200439454	0.8980960083007813	0.012764900207519532	-0.03958819961547851	0.9189639892578125	0.001032089948654174	-0.03182710075378418	0.9572459716796875	0.029397699356079103	-0.000561855971813201	0.861552978515625	0.022733600616455078	-0.004018559932708741	0.8858179931640625	0.010447600364685058	-0.006301839828491211	0.9139219970703125	-0.00206082010269165	-0.008707690238952636	0.9553629760742187	0.03018440055847168	0.026096599578857422	0.8757760009765625	0.021333700180053712	0.023875	0.8986229858398438	0.008780630111694335	0.019951799392700195	0.9244920043945313	-3.2575998455286005e-05	0.012664199829101563	0.9628049926757812	0.032222198486328124	0.06511430358886719	0.9231439819335937	0.021288700103759765	0.058331401824951175	0.9388389892578125	0.011257699966430664	0.05041400146484375	0.9531099853515625	0.003452620029449463	0.03338249969482422	0.975885009765625	-0.027056900024414063	-0.004138989925384521	1.0394599609375
